<svg width="180" height="38" fill="none" xmlns="http://www.w3.org/2000/svg"><path d="M161.015 26.915l.006-6.612 6.517.005V17.28l-6.517-.005.005-7.153 8.074.006V7.04h-11.478v23.03s7.364.015 9.222.015c1.393 0 2.557-1.535 2.557-3.155l-8.386-.016zM49.998 24.798h-.058s-.964-1.726-1.446-2.483c-1.72-2.706-4.426-7-7.284-11.53-1.477-2.34-3.002-3.728-4.988-3.807v23.034h3.304l.01-15.882h.08s.741 1.482 1.35 2.457c1.79 2.853 4.267 6.818 6.835 10.863 1.43 2.25 3.24 2.71 5.363 2.737V7.152h-3.177v17.646h.01zm102.388 2.461a31.585 31.585 0 011.488 2.849l-3.426.01a55.198 55.198 0 00-1.487-2.657 54.567 54.567 0 00-1.546-2.404 45.774 45.774 0 00-1.546-2.144 74.737 74.737 0 00-.794-1.017c-.964.17-1.985.281-3.129.329v7.756l-3.219.01v-7.73h-4.685l-1.197-3.202h5.882V7.93c1.265-.556 3.404-1.027 4.781-1.107 2.207-.122 4.357.36 6.03 1.419 2.017 1.281 3.187 3.277 3.293 5.622.095 2.128-.524 3.907-1.837 5.284-.752.783-1.705 1.419-2.875 1.906.275.35.588.757.948 1.228a49.218 49.218 0 011.641 2.319 66.565 66.565 0 011.678 2.657zm-3.431-10.323c.699-.73 1.012-1.689.953-2.928-.058-1.307-.667-2.34-1.81-3.06-1.536-.974-4.003-1.196-6.147-.64v8.724c3.293-.164 5.84-.878 7.004-2.096zM26.592 27.694c0 1.392 1.705 2.557 3.383 2.557l.016-23.099-3.398.01v20.532zm-16.004 0c0 1.392 1.758 2.557 3.383 2.557l.01-9.948 6.518.005V17.28l-6.517-.005.005-7.153 8.074.006v-2.97H10.604c0 .005-.016 18.677-.016 20.535zM124.28 7.887c-.429.466-.959 1.398-1.26 2.271-.556 1.61-2.462 7.38-2.478 7.439l-.81 2.716a11.597 11.597 0 013.955-2.256l1.111-3.684c1.774 4.537 6.232 15.76 6.232 15.76l3.531-.069-9-23.077s-.625.186-1.281.9zm-17.736 19.027V7.046h-3.489v23.025s7.137.015 9 .015c1.393 0 2.557-1.535 2.557-3.155l-8.068-.016zM75.992 7.152h-3.193v17.64h-.058s-.963-1.726-1.445-2.483c-1.72-2.705-4.426-6.998-7.285-11.53-1.477-2.34-2.986-3.727-4.97-3.807l-.017 23.035h3.304l.01-15.882h.08s.741 1.482 1.35 2.456c1.79 2.854 4.267 6.819 6.835 10.864 1.429 2.25 3.24 2.71 5.362 2.737l.027-23.03zM97.539 17.28l-6.517-.005.005-7.153 8.074.006v-2.97H87.644s-.016 18.672-.016 20.53c0 1.393 1.758 2.557 3.383 2.557l.01-9.947 6.518.005V17.28zm19.165 12.88h3.203c0-1.699 1.583-6.781 6.665-7.443l-1.191-3.044c-6.47 1.281-8.677 7.719-8.677 10.488z" fill="#20285C"/></svg>