<svg width="180" height="66" fill="none" xmlns="http://www.w3.org/2000/svg"><path fill="#fff" d="M0 0h180v65.074H0z"/><path d="M81.824 44.508h-1.867v-12.98h-.096l-5.17 12.88h-1.723l-5.17-12.88h-.096v12.98h-1.867v-16.86h2.346l5.6 14.075h.096l5.601-14.075h2.346v16.86zm12.733-4.824h-6.462l-1.628 4.824h-2.106l5.983-16.86h2.011l5.984 16.86h-2.106l-1.676-4.824zm-5.84-1.79h5.266l-2.585-7.71h-.048l-2.633 7.71zm18.334-10.246c3.064 0 5.17 2.238 5.17 5.421 0 3.183-2.154 5.421-5.218 5.421h-4.069v6.018h-2.01v-16.86h6.127zm-4.069 9.002h3.59c2.298 0 3.639-1.343 3.639-3.58 0-2.239-1.293-3.532-3.639-3.532h-3.59v7.112zm13.356 3.233c.191 1.84 1.867 3.033 4.165 3.033 2.202 0 3.781-1.193 3.781-2.884 0-1.442-.957-2.288-3.159-2.885l-2.059-.547c-2.968-.795-4.308-2.138-4.308-4.426 0-2.785 2.346-4.774 5.745-4.774 3.207 0 5.552 1.989 5.648 4.824h-2.01c-.192-1.79-1.58-2.934-3.686-2.934-2.107 0-3.543 1.143-3.543 2.785 0 1.293.91 2.039 3.112 2.636l1.675.447c3.351.895 4.739 2.238 4.739 4.625 0 3.084-2.345 5.023-6.079 5.023-3.447 0-5.84-1.94-6.032-4.923h2.011zm12.925 3.431c0-.746.574-1.343 1.292-1.343.718 0 1.293.597 1.293 1.343s-.575 1.343-1.293 1.343c-.718-.05-1.292-.597-1.292-1.343zm22.546 1.194h-1.867v-12.98h-.095l-5.17 12.88h-1.724l-5.169-12.88h-.096v12.98h-1.867v-16.86h2.345l5.601 14.075h.096l5.601-14.075h2.345v16.86zm13.978 0h-10.052v-16.86h10.052v1.89h-7.994v5.421h7.611v1.89h-7.611v5.77h8.042v1.889h-.048z" fill="#374146"/><path d="M37 15c11.031 0 20 9.318 20 20.779 0 11.46-8.969 20.778-20 20.778S17 47.24 17 35.78C17 24.318 25.969 15 37 15z" fill="#4CD950"/><path d="M29.405 40.178l-2.755 2.863-1.354-7.132 4.11 4.27zm4.93-5.072l-4.205 4.319-5.124-5.374c-.097-1.557.967-2.963 2.465-3.265l2.32-.452 4.545 4.772zm6.914-7.082l-6.188 6.379-4.06-4.32 10.248-2.059zm6.912 3.064l-3.238 3.365-4.158-4.37 2.32-2.36 1.306-.251c1.643-.352 3.239.803 3.577 2.51l.193 1.106zm1.547 8.387L45.6 35.206l2.804-2.863 1.305 7.132zm.29 1.808c.049 1.507-.966 2.863-2.465 3.164l-2.417.502-4.447-4.67 4.205-4.32 5.124 5.324zm-14.26 5.575l-5.076 1.004c-1.644.352-3.239-.803-3.577-2.511l-.194-1.055 3.24-3.365 4.882 5.123.725.804zm8.218-1.658l-4.834.955h-.049l-2.127.452-1.208-1.256 2.707-2.762 1.498-1.607 4.013 4.218zm.241-10.044l-4.254 4.37-4.157-4.42 4.206-4.32 4.205 4.37zm-8.17 5.625a1.26 1.26 0 01-.676.552h-.097a1.12 1.12 0 01-1.256-.803c-.145-.603.193-1.256.773-1.407h.097c.58-.1 1.111.252 1.256.804.049.301.049.603-.096.854zm3.916-13.108l-1.305.25c-.193-1.054-1.16-1.707-2.175-1.506l-2.03.402c-1.016.2-1.644 1.205-1.45 2.26l-1.306.251c-.338-1.758.774-3.516 2.514-3.867l2.03-.402c1.74-.352 3.384.854 3.722 2.612z" fill="#fff"/></svg>