<svg width="180" height="66" fill="none" xmlns="http://www.w3.org/2000/svg"><path fill="#fff" d="M0 0h180v65.074H0z"/><path d="M75.888 38.156h-1.174v-8.161h-.06l-3.25 8.098H70.32l-3.25-8.098h-.061v8.161h-1.174v-10.6h1.475l3.521 8.849h.06l3.522-8.849h1.475v10.6zm8.005-3.033H79.83l-1.023 3.033h-1.324l3.762-10.6h1.264l3.762 10.6h-1.324l-1.054-3.033zm-3.671-1.126h3.31l-1.625-4.846h-.03l-1.655 4.846zm11.527-6.441c1.926 0 3.25 1.407 3.25 3.408 0 2.002-1.354 3.409-3.28 3.409H89.16v3.783h-1.264v-10.6h3.853zm-2.558 5.66h2.257c1.445 0 2.287-.845 2.287-2.252 0-1.407-.812-2.22-2.287-2.22H89.19v4.472zm8.397 2.032c.12 1.157 1.173 1.908 2.618 1.908 1.385 0 2.378-.751 2.378-1.814 0-.907-.602-1.438-1.987-1.814l-1.294-.344c-1.866-.5-2.709-1.344-2.709-2.782 0-1.752 1.475-3.002 3.612-3.002 2.017 0 3.491 1.25 3.551 3.033h-1.264c-.12-1.126-.993-1.845-2.317-1.845-1.324 0-2.227.72-2.227 1.75 0 .814.572 1.283 1.956 1.658l1.053.282c2.107.562 2.98 1.407 2.98 2.908 0 1.938-1.475 3.158-3.822 3.158-2.167 0-3.672-1.22-3.793-3.096h1.265zm8.126 2.158c0-.47.361-.845.812-.845.452 0 .813.376.813.845s-.361.844-.813.844c-.451-.031-.812-.375-.812-.844zm14.176.75h-1.174v-8.161h-.06l-3.251 8.098h-1.083l-3.251-8.098h-.06v8.161h-1.174v-10.6h1.475l3.521 8.849h.06l3.522-8.849h1.475v10.6zm8.788 0h-6.321v-10.6h6.321v1.188h-5.026v3.409h4.785v1.188h-4.785v3.627h5.056v1.188h-.03z" fill="#374146"/><path d="M40.442 18.647c7.404 0 13.424 6.254 13.424 13.946s-6.02 13.946-13.424 13.946S27.02 40.285 27.02 32.593s6.02-13.946 13.423-13.946z" fill="#4CD950"/><path d="M35.09 34.566l-1.716 1.782-.843-4.44 2.558 2.658zm3.07-3.158l-2.62 2.69-3.19-3.347c-.06-.969.602-1.845 1.535-2.032l1.445-.282 2.83 2.971zm4.303-4.409l-3.852 3.971-2.528-2.689L42.463 27zm4.304 1.908l-2.017 2.095-2.588-2.72 1.445-1.47.812-.157c1.024-.219 2.017.5 2.228 1.564l.12.688zm.963 5.221l-2.558-2.657 1.745-1.783.813 4.44zm.18 1.126c.03.938-.601 1.782-1.534 1.97l-1.505.313-2.77-2.908 2.62-2.69 3.19 3.315zm-8.878 3.47l-3.16.626c-1.023.22-2.017-.5-2.227-1.563l-.12-.657 2.016-2.095 3.04 3.19.451.5zm5.117-1.031l-3.01.594h-.03l-1.325.282-.752-.782 1.686-1.72.932-1 2.498 2.626zm.15-6.254l-2.648 2.72-2.589-2.751 2.619-2.69 2.618 2.721zm-5.086 3.502a.784.784 0 01-.422.344h-.06a.698.698 0 01-.782-.5c-.09-.375.12-.782.481-.875h.06a.68.68 0 01.783.5c.03.187.03.375-.06.531zm2.438-8.16l-.813.155a1.144 1.144 0 00-1.355-.938l-1.264.25c-.632.126-1.023.751-.903 1.408l-.812.156c-.21-1.094.481-2.189 1.565-2.408l1.264-.25c1.084-.219 2.107.532 2.318 1.626z" fill="#fff"/></svg>