<svg width="180" height="78" fill="none" xmlns="http://www.w3.org/2000/svg"><g clip-path="url(#clip0_2417:37)"><path d="M72.788 74.48c-.343-.943-.964-1.585-1.413-2.42-1.092-1.434-2.376-2.676-3.661-3.918-.45-.15-.642-.578-1.07-.749-.279-.364-.728-.557-1.092-.835-.728-.557-1.52-1.028-2.334-1.499-1.541-.984-3.447-1.605-5.33-2.247-2.034-.493-4.175-.857-6.401-1.156-2.206-.322-4.41-.621-6.08-1.499-.964-.278-1.67-.813-2.505-1.242-.77-.514-1.606-.942-2.248-1.584-.792-.47-1.285-1.263-1.905-1.905-.214-.428-.578-.685-.75-1.156-.214-.086-.278-.343-.406-.493-.15-.17-.15-.513-.407-.578-.129.878-.086 1.927 0 2.826.107.386.15.857.257 1.242.064.342.385.899.257 1.156-6.68-.343-11.56-2.462-15.8-5.245-2.098-1.392-3.896-3.083-5.566-4.902-.728-1.007-1.52-1.97-2.162-3.083-.664-1.092-1.22-2.334-1.82-3.49-.984-2.505-1.905-5.074-2.248-8.22-.449-2.933-.342-6.68.322-9.399.235-1.498.727-2.761 1.156-4.067.278-.6.578-1.2.835-1.82.364-.514.556-1.22 1.006-1.67 1.22-2.29 3.04-4.003 4.902-5.652 2.013-1.477 4.303-2.676 7.065-3.404 2.655-.599 6.273-.706 9.141-.085 5.823 1.199 10.212 3.81 13.894 7.15 3.725 3.276 6.594 7.429 8.564 12.481 2.033 4.796 2.74 12.267.92 17.705-.75-.428-1.499-.835-2.248-1.242-.899-.257-1.777-.557-2.826-.664-1.263-.021-2.505 0-3.318.407 1.648-.171 2.976.278 4.003.664.6.235.942.385 1.413.663.92.536 1.734 1.028 2.42 1.756 1.947 1.713 3.34 3.982 4.003 6.979 0 .086.107.064.085-.086.086-.021.129-.085.172-.17.107-.13.235-.258.342-.408.214-.257.428-.514.578-.835.45-.535.814-1.134 1.156-1.755.792-1.156 1.392-2.483 2.077-3.746 1.177-2.698 2.14-5.61 2.74-8.906 1.199-7.322-.235-14.258-2.74-19.375-2.57-5.16-6.166-9.29-10.811-12.395C50.266 2.526 44.785.257 37.25.043c-.043-.15-.107.021-.257 0C33.011-.086 29.8.47 26.61 1.284c-1.477.493-3.018.921-4.324 1.585-1.499.492-2.698 1.306-4.068 1.905-.492.471-1.241.706-1.755 1.156-.664.321-1.156.835-1.82 1.156-1.07.942-2.205 1.777-3.254 2.74-1.028.942-1.927 2.013-2.911 2.997-.15.343-.407.579-.664.835-.171.322-.385.6-.664.835-.107.386-.45.535-.578.92-.278.215-.342.643-.663.836-.279.685-.771 1.177-1.092 1.82-.386.62-.685 1.305-1.07 1.905-.6 1.391-1.242 2.74-1.735 4.239A29.711 29.711 0 00.771 28.88C.449 30.442.15 32.476.193 34.125c-.215.6-.043 1.712 0 2.419 0 .128-.086.171-.086.257 0 .792.214 1.755.257 2.247.171 1.82.492 3.511 1.006 4.989.321 1.648 1.006 2.933 1.499 4.41.749 1.241 1.263 2.719 2.162 3.832.663 1.306 1.605 2.333 2.505 3.404.963 1.027 1.926 2.076 3.082 2.911 2.12 1.841 4.603 3.319 7.322 4.582 5.074 2.462 12.652 4.067 19.46 3.66 1.734-.235 3.49-.45 5.074-.835 1.456-.535 3.147-.856 4.902-1.07 4.004-.257 7.472.107 10.554 1.006 3.126.835 5.824 2.098 8.157 3.747 1.242.728 2.27 1.67 3.318 2.569 1.07.92 1.927 2.055 2.912 3.082.128.386.385.664.578 1.007.257.278.128.92.749.835.385-.386-.064-.942-.086-1.413-.385-.407-.47-.942-.77-1.285z" fill="#FCB316"/><path d="M57.245 51.7c-.085 0-.106.065-.17.087-.15.32-.086.834 0 1.156.449.92.599 2.119 1.583 2.504.471-.15.429-.835.407-1.498-.214-.814-.514-1.542-1.006-2.077-.342-.128-.578-.342-.813-.171zm-5.822 2.334c0-.042-.065-.085-.086 0-.814-.107-1.092.343-1.499.664-.706 1.863.428 3.682 2.42 3.66.791-.192 1.284-.706 1.412-1.583-.107-1.563-.77-2.57-2.248-2.74z" fill="#FCB316"/><path d="M99.42 48.104c.32 1.349 1.006 2.312 1.776 3.212.771.899 1.67 1.648 2.762 2.205a13.167 13.167 0 003.425 1.541c.621.214 1.221.47 1.991.557.536.3 1.178.45 1.221 1.22-.022.92-.643 1.263-1.435 1.434-.792-.171-1.777-.15-2.44-.45-1.67-.192-3.019-.727-4.432-1.22a19.929 19.929 0 01-6.85-4.431c-.386-.642-.92-1.156-1.328-1.777-.406-.62-.685-1.37-1.113-1.991-3.297-.428-5.545-1.927-7.514-3.66-1.82-2.077-3.276-4.56-3.875-7.858-.707-3.168-.492-7.129.343-10.19 1.82-5.93 5.63-9.869 12.823-10.404 1.991.064 3.725.3 5.309.899 1.606.578 3.126 1.648 4.325 2.762.107.085.15.107.214.214.257.364.878.877 1.22 1.327.064.086.043.235.107.343.129.192.321.278.45.449.064.107.042.235.107.321.085.129.192.321.321.557.043.085.193.15.214.214.193.364.278.813.449 1.22.172.428.407.792.557 1.22.428 1.263.707 2.762.878 4.303.428 4.453-.45 8.435-2.098 11.39-.771 1.541-1.841 2.804-3.104 3.874-1.156 1.22-2.741 1.949-4.303 2.72zm-5.31-27.873c-.963.064-1.541.514-2.333.77-.514.471-1.156.835-1.541 1.435-.643.364-.814 1.177-1.328 1.648a20.596 20.596 0 00-1.113 3.661 26.55 26.55 0 00-.45 4.432c-.021 3.81.793 7.6 2.313 9.847a10.107 10.107 0 003.318 2.655c.77.064 1.37.321 2.205.343.47-.172 1.242 0 1.541-.343.685.043.835-.407 1.434-.45a3.452 3.452 0 011.114-.77c.407-.45.792-.9 1.22-1.328.214-.32.343-.77.664-1.006 1.926-3.682 2.14-10.425.877-14.707a13.056 13.056 0 00-1.884-3.875 10.886 10.886 0 00-2.868-2.098c-.878-.193-1.713-.428-2.869-.321-.064 0-.128.021-.107.107h-.193zm23.357-3.104c1.734.064 3.768-.15 5.309.107.342.535.214 1.177.214 1.777.128 8.113 0 16.826 0 25.111 0 .664.021 1.35 0 1.991-.021.557.128 1.156-.214 1.67-.771.193-1.884.107-2.869.107-1.049 0-2.076.15-2.761-.214a788.031 788.031 0 010-30.207c.042-.171.149-.278.321-.342zm13.273 0h5.202c.471.642.621 1.605.771 2.547 1.562 5.952 3.104 11.925 4.538 18.026.343.043.236-.364.343-.557.15-.15.064-.514.214-.663.064-.493.364-.75.342-1.328.386-.749.514-1.776.878-2.547.45-1.798 1.049-3.468 1.563-5.202.492-1.799 1.156-3.426 1.541-5.31.728-1.52.899-3.596 1.777-4.966h2.205c.792 1.498 1.092 3.49 1.777 5.095.45 1.798 1.07 3.425 1.541 5.202 1.092 3.447 2.227 6.85 3.212 10.404.449-.663.449-1.777.77-2.547.193-.878.364-1.777.664-2.548.856-3.51 1.67-7.043 2.655-10.404.364-1.756.728-3.554 1.327-5.095 1.284-.193 3.254-.193 4.538 0 .108 1.306-.492 2.718-.877 3.875-.214 1.412-.728 2.504-1.006 3.874-.793 2.505-1.392 5.16-2.205 7.643-.621 2.655-1.456 5.095-2.098 7.75-.429 1.22-.728 2.569-1.114 3.875-.428 1.199-.578 2.676-1.22 3.66h-3.104c-.792-1.39-1.071-3.275-1.777-4.752-1.541-4.881-3.254-9.57-4.753-14.493-.513.535-.513 1.627-.877 2.312-.236.835-.471 1.67-.771 2.44-.428 1.691-1.07 3.126-1.434 4.86-.621 1.52-1.071 3.211-1.542 4.881-.642 1.456-.878 3.318-1.67 4.646-.813.257-2.098.042-3.104.107-.771-.878-.856-2.462-1.327-3.661-.364-1.242-.621-2.612-1.092-3.768-.599-2.697-1.499-5.074-2.098-7.75-.792-2.483-1.477-5.073-2.205-7.642-.407-1.22-.706-2.527-1.113-3.768-.193-1.328-1.092-2.526-.771-3.982.043-.107.171-.172.3-.214zm43.694 0c1.734.064 3.746-.15 5.309.107.385 1.156.214 2.397.214 3.64V44.1c0 1.263.15 2.483-.214 3.66a29.643 29.643 0 01-4.431.108c-.429-.022-.942.107-1.221-.214-.385-1.156-.214-2.377-.214-3.661V21.002c0-1.392-.128-2.74.214-3.661a.72.72 0 01.343-.214z" fill="#0269B3"/></g><defs><clipPath id="clip0_2417:37"><path fill="#fff" d="M0 0h180v77.155H0z"/></clipPath></defs></svg>