<svg width="202.32" height="45.92" xmlns="http://www.w3.org/2000/svg"><style>.st0{fill:#fff}</style><path class="st0" d="M42.41 35.19c-.08-1.52-.18-2.76-.31-3.71 1.96.89 3.73 1.33 5.33 1.33.64 0 1.24-.1 1.79-.29s.96-.47 1.23-.82c.26-.35.4-.75.4-1.19 0-.34-.06-.64-.19-.91-.19-.37-.51-.75-.95-1.15-.57-.55-1.59-1.45-3.05-2.71-.7-.61-1.18-1.04-1.45-1.3-.6-.57-1.06-1.08-1.38-1.53s-.55-.91-.69-1.35-.21-.93-.21-1.44c0-.94.26-1.82.79-2.64.52-.82 1.31-1.47 2.35-1.93s2.36-.7 3.95-.7c1.43 0 3.03.17 4.82.52.05 1.04.15 2.23.3 3.56-1.55-.6-2.99-.9-4.3-.9-.98 0-1.78.22-2.4.67-.62.44-.93.96-.93 1.55 0 .16.02.33.06.5s.11.34.2.51.24.38.46.64.55.57.98.93.79.64 1.1.86l1.85 1.68c.47.39.89.77 1.26 1.14s.68.72.95 1.06c.26.34.47.66.62.97s.26.63.34.95.11.67.11 1.03c0 .84-.19 1.63-.58 2.37s-.95 1.35-1.68 1.83-1.53.81-2.4 1c-.87.18-1.79.28-2.76.28-.64 0-1.38-.06-2.23-.16-.87-.13-1.99-.34-3.38-.65zm13.8 7.3c-.18-1.5-.32-2.58-.43-3.23.96.45 1.86.67 2.71.67.26 0 .52-.03.79-.1.27-.06.52-.16.75-.28.15-.08.3-.19.46-.34.15-.15.37-.42.64-.82s.5-.79.7-1.18c.16-.33.32-.75.49-1.26l-3.11-9.1-2.28-6.46c1.05.02 1.8.03 2.26.03.53 0 1.22-.01 2.08-.03.21.83.4 1.55.58 2.16l1.42 4.7c.44 1.45.75 2.54.94 3.26.12.48.26 1.11.42 1.9.3-.91.56-1.65.78-2.22.39-1.04.93-2.43 1.63-4.16l1.45-3.58c.26-.64.52-1.33.79-2.07.9.02 1.58.03 2.05.03.43 0 1.15-.01 2.16-.03l-5.76 12.91-2.5 5.7c-.35.74-.68 1.31-1 1.72-.26.35-.54.65-.85.9-.3.24-.62.44-.96.6-.43.2-.89.36-1.39.48-.57.12-1.14.18-1.72.18-.33 0-.79-.03-1.38-.09-.58-.05-1.16-.15-1.72-.29zm17.99-6.87c.23-2.27.42-4.81.57-7.64.15-2.82.24-5.36.26-7.59a75.773 75.773 0 004.27 0l-.17 2.55c.31-.44.58-.79.82-1.05.23-.26.53-.51.9-.76.36-.25.75-.45 1.17-.6.41-.15.88-.27 1.39-.36s1.05-.13 1.61-.13c.89 0 1.74.11 2.55.34.81.22 1.47.58 1.97 1.07s.83 1.02.99 1.6.24 1.19.24 1.84c0 .27-.01.7-.04 1.29l-.31 6.54c-.04.91-.06 1.88-.07 2.9-.79-.02-1.46-.03-2.02-.03-.76 0-1.52.01-2.29.03.08-.87.18-2.38.3-4.54s.18-3.59.18-4.29c0-.79-.12-1.42-.37-1.9s-.64-.84-1.16-1.09-1.09-.37-1.7-.37c-.6 0-1.16.11-1.68.34s-.97.56-1.35 1c-.4.45-.71 1-.93 1.66-.23.7-.4 1.85-.51 3.46-.1 1.43-.18 3.34-.24 5.73-.77-.02-1.46-.03-2.08-.03-.63 0-1.4.01-2.3.03zm33.03-3.4c-.13.59-.31 1.65-.55 3.17-1.08.23-1.99.38-2.73.46s-1.48.12-2.23.12c-1.31 0-2.48-.13-3.51-.39s-1.94-.74-2.72-1.43-1.35-1.54-1.72-2.55-.55-2.06-.55-3.17c0-1.23.21-2.42.64-3.57s1.03-2.09 1.8-2.83c.77-.73 1.65-1.25 2.64-1.56s2.02-.46 3.1-.46c1.02 0 1.99.13 2.9.38s1.69.67 2.31 1.25 1.1 1.27 1.44 2.08c.33.81.5 1.72.5 2.71 0 .47-.05.95-.15 1.45l-10.98.02c-.02.37-.03.66-.03.88 0 .67.11 1.28.34 1.84s.56 1.03 1 1.42.96.68 1.57.86 1.21.28 1.8.28c.69 0 1.43-.07 2.24-.22s1.78-.38 2.89-.74zm-9.68-6.05l7.01.02c0-.48-.01-.83-.04-1.06s-.1-.49-.2-.78-.25-.55-.43-.78-.39-.41-.63-.56-.52-.26-.83-.34-.65-.12-1.01-.12a3.785 3.785 0 00-2.31.76c-.33.25-.6.53-.8.83s-.36.6-.46.89-.2.67-.3 1.14zm12.95 9.45l.43-7.11.12-4.13c.02-.85.03-1.7.03-2.56 0-.15-.01-.62-.03-1.42.93.02 1.61.03 2.05.03.51 0 1.18-.01 2.02-.03l-.07 2.11c.38-.54.7-.94.97-1.21s.57-.49.91-.68c.33-.19.71-.33 1.12-.43s.83-.15 1.26-.15c.4 0 .81.05 1.23.15 0 .93.04 2.11.13 3.53-.59-.16-1.12-.24-1.6-.24-.58 0-1.09.09-1.54.26-.44.17-.84.44-1.2.79-.35.35-.65.79-.88 1.31-.19.42-.33.96-.42 1.63-.08.52-.14 1.41-.2 2.67-.05 1.26-.08 2.5-.08 3.71 0 .47.01 1.06.04 1.77-.76-.02-1.45-.03-2.08-.03-.61 0-1.35.01-2.21.03zm12.69 3.16c2.25.74 4.19 1.11 5.84 1.11.63 0 1.22-.08 1.78-.23s1.03-.38 1.41-.67.67-.69.88-1.2.35-1.09.42-1.75.12-1.67.17-3.01c-.39.53-.74.94-1.05 1.24s-.68.56-1.12.79c-.43.23-.94.42-1.52.57s-1.19.22-1.83.22c-.88 0-1.71-.14-2.5-.41s-1.49-.71-2.1-1.3-1.08-1.33-1.4-2.22-.48-1.82-.48-2.79c0-1.39.26-2.7.79-3.94.52-1.24 1.29-2.26 2.31-3.05 1.01-.8 2.1-1.35 3.25-1.65s2.43-.45 3.84-.45c.78 0 1.66.05 2.65.14s2.3.29 3.92.58l-.34 4.74-.31 5.94-.12 5.37c-.03.61-.1 1.19-.22 1.76-.12.56-.31 1.07-.57 1.53-.26.45-.59.86-.99 1.21s-.85.63-1.35.85c-.5.21-1.13.39-1.87.53s-1.54.21-2.39.21c-.91 0-1.94-.06-3.1-.18s-2.42-.34-3.79-.67zm10.93-15.39c-.87-.18-1.67-.27-2.41-.27-1.3 0-2.37.24-3.22.71-.85.48-1.5 1.17-1.96 2.08s-.69 1.87-.69 2.89c0 .75.14 1.45.42 2.09s.72 1.13 1.31 1.46 1.25.49 1.97.49c.51 0 .99-.08 1.43-.24s.85-.41 1.21-.73c.36-.33.68-.74.95-1.23s.47-1.04.58-1.66.2-1.38.26-2.31c.06-.91.11-2.01.15-3.28zm20.61 8.83c-.13.59-.31 1.65-.55 3.17-1.08.23-1.99.38-2.73.46s-1.48.12-2.23.12c-1.31 0-2.48-.13-3.51-.39s-1.94-.74-2.72-1.43-1.35-1.54-1.72-2.55-.55-2.06-.55-3.17c0-1.23.21-2.42.64-3.57s1.03-2.09 1.8-2.83c.77-.73 1.65-1.25 2.64-1.56s2.02-.46 3.1-.46c1.02 0 1.99.13 2.9.38s1.69.67 2.31 1.25 1.1 1.27 1.44 2.08c.33.81.5 1.72.5 2.71 0 .47-.05.95-.15 1.45l-10.98.02c-.02.37-.03.66-.03.88 0 .67.11 1.28.34 1.84s.56 1.03 1 1.42.96.68 1.57.86 1.21.28 1.8.28c.69 0 1.43-.07 2.24-.22s1.78-.38 2.89-.74zm-9.67-6.05l7.01.02c0-.48-.01-.83-.04-1.06s-.1-.49-.2-.78-.25-.55-.43-.78-.39-.41-.63-.56-.52-.26-.83-.34-.65-.12-1.01-.12a3.785 3.785 0 00-2.31.76c-.33.25-.6.53-.8.83s-.36.6-.46.89-.2.67-.3 1.14zm22.3 6.32c-.12.55-.31 1.57-.57 3.05-.84.19-1.5.31-1.98.36s-.93.07-1.35.07c-.74 0-1.4-.07-1.98-.21s-1.07-.39-1.45-.74-.64-.77-.77-1.24-.2-.97-.2-1.48c0-.13 0-.3.02-.52.01-.22.05-.93.12-2.13l.34-6.23h-2.15c.05-.6.09-1.56.13-2.89h2.26c.06-.58.12-1.56.18-2.95l1.77-.34c.37-.07 1.08-.23 2.15-.49-.07 1.35-.11 2.61-.12 3.79h3.81c-.07 1.35-.1 2.31-.1 2.89h-3.82c-.21 4.06-.31 6.41-.31 7.05 0 .62.07 1.1.2 1.44s.35.58.65.73.62.22.96.22c.25 0 .51-.02.79-.06.25-.03.73-.14 1.42-.32zm1.75 3.13c.15-1.5.26-2.75.32-3.76a265.338 265.338 0 00.43-11.46c.97.02 1.7.03 2.19.03.45 0 1.17-.01 2.17-.03-.13 1.74-.24 3.39-.33 4.97-.08 1.58-.14 3.38-.18 5.42s-.06 3.65-.06 4.84c-.91-.02-1.64-.03-2.19-.03-.52-.01-1.31 0-2.35.02zm.82-17.83c.04-1.03.06-1.82.06-2.37v-.48c.91.02 1.65.03 2.22.03.78 0 1.5-.01 2.17-.03-.03.25-.05.53-.06.85l-.07 1.99c-.76-.02-1.46-.03-2.1-.03-.65.01-1.39.02-2.22.04zm18.98 14.37c-.05.41-.12.87-.22 1.39s-.2 1.16-.31 1.93c-1.43.33-2.83.49-4.22.49-.81 0-1.59-.07-2.34-.22s-1.44-.42-2.09-.8c-.64-.38-1.21-.89-1.7-1.52s-.86-1.39-1.1-2.28-.37-1.81-.37-2.76c0-1.26.2-2.47.61-3.62.4-1.16 1-2.1 1.77-2.84.78-.73 1.64-1.23 2.6-1.5.95-.26 2.01-.4 3.18-.4.65 0 1.32.04 2.01.11.69.08 1.5.23 2.44.46l.22 3.28c-1.48-.51-2.78-.76-3.89-.76-.68 0-1.32.12-1.92.34s-1.12.59-1.55 1.09c-.43.49-.74 1.07-.93 1.71-.18.65-.28 1.31-.28 1.99 0 .95.15 1.77.44 2.46s.8 1.23 1.52 1.61 1.53.57 2.45.57c.45 0 .99-.06 1.64-.17.64-.11 1.32-.3 2.04-.56zm2.34 3.18l-.33-3.29c.98.4 1.81.68 2.49.83s1.3.23 1.87.23 1.05-.07 1.44-.2.68-.33.87-.6c.19-.26.28-.54.28-.83 0-.13-.01-.25-.04-.36s-.07-.22-.13-.34-.14-.23-.22-.34c-.08-.1-.2-.22-.35-.36-.15-.13-.36-.31-.64-.52l-.81-.64c-.78-.61-1.37-1.09-1.78-1.44s-.75-.71-1.03-1.07-.49-.75-.64-1.15c-.14-.4-.22-.82-.22-1.24 0-.73.22-1.42.67-2.08.44-.66 1.09-1.14 1.94-1.44s1.85-.46 2.99-.46c1.31 0 2.81.16 4.52.46l.19 3.13c-1.16-.47-2.27-.7-3.34-.7-.58 0-1.09.06-1.52.17-.43.12-.75.29-.94.52s-.28.5-.28.79c0 .17.03.34.09.5s.16.34.31.52.32.35.52.51.6.47 1.22.94 1.16.89 1.62 1.27.85.76 1.15 1.15c.3.38.53.8.69 1.24s.24.88.24 1.33c0 .75-.23 1.44-.69 2.08s-1.15 1.14-2.08 1.5-1.97.54-3.11.54c-.6 0-1.33-.05-2.19-.14-.86-.11-1.78-.27-2.76-.51zM0 34.02s6.36-5.74 13.52-8.45 13.65-4.3 14.03-4.52c.38-.23 3.01-1.58.45-2.64-2.71-1.13-4.75-1.36-5.35-1.73-.6-.38-3.09-1.36-.83-3.85.43-.47 2.06-1.17 2.64-1.36.9-.3 4.07-1.36 4.37-1.36s1.65.74 1.65.74-2.78 1.28-3.08 1.83c-.38.68-.83 1.58.45 2.34 1.07.63 2.48.77 3.41.91.16.02.31.05.43.07 1.26.26 6.38 1.73 5.58 5.05-.6 2.49-3.36 3.32-4 3.54-4.07 1.43-11.75 6.31-14.1 7.92-5.73 3.92-10.75 10.16-12.05 12.86-.1.21-.2.55-.2.55C.5 40.35 0 34.02 0 34.02M32.08 5.46h-1l.5-5.46zm1.85 1.79l-.71-.7 2.29-1.58zm-4.15-.8l-.7.71-1.58-2.28z"/><path d="M30.82 8.51c0-.38.31-.69.69-.69s.69.31.69.69-.31.69-.69.69a.691.691 0 01-.69-.69" fill="#fff" stroke="#fff" stroke-miterlimit="10"/><path class="st0" d="M34.18 9.01v-1l5.45.5zm-5.51-1v1l-5.45-.5z"/></svg>