<svg width="180" height="41" fill="none" xmlns="http://www.w3.org/2000/svg"><g clip-path="url(#clip0_2421:31)"><path d="M37.731 31.308c-.07-1.352-.16-2.456-.275-3.3 1.743.791 3.318 1.182 4.742 1.182.569 0 1.103-.088 1.592-.258.49-.169.854-.418 1.094-.73.232-.31.356-.666.356-1.058 0-.302-.053-.57-.169-.81-.169-.329-.453-.667-.845-1.023-.507-.489-1.415-1.29-2.713-2.41a40.553 40.553 0 01-1.29-1.157c-.534-.507-.944-.961-1.228-1.361-.285-.4-.49-.81-.614-1.201a4.249 4.249 0 01-.187-1.282c0-.836.231-1.619.703-2.348.462-.73 1.165-1.308 2.09-1.717.926-.41 2.1-.623 3.515-.623 1.272 0 2.696.151 4.288.462.045.926.133 1.984.267 3.168-1.379-.534-2.66-.801-3.826-.801-.872 0-1.583.196-2.135.596-.551.392-.827.854-.827 1.38 0 .141.017.293.053.444.036.151.098.302.178.454.08.15.214.338.41.569.195.231.489.507.871.827.383.32.703.57.979.766l1.646 1.494c.418.347.792.685 1.12 1.014.33.33.606.641.846.944.231.302.418.587.551.863a3.808 3.808 0 01.4 1.762c0 .746-.168 1.45-.515 2.108a4.363 4.363 0 01-1.495 1.628c-.65.427-1.361.72-2.135.89-.774.16-1.592.248-2.456.248-.569 0-1.227-.053-1.983-.142a44.128 44.128 0 01-3.008-.578zm12.278 6.495c-.16-1.335-.285-2.296-.383-2.874.855.4 1.655.596 2.412.596.23 0 .462-.027.702-.089a2.72 2.72 0 00.668-.25 1.93 1.93 0 00.409-.302c.133-.133.329-.373.57-.73.24-.355.444-.702.622-1.049a9.61 9.61 0 00.436-1.121l-2.767-8.096-2.028-5.747c.934.017 1.601.026 2.01.026.472 0 1.086-.009 1.85-.026.188.738.357 1.379.517 1.921l1.263 4.182c.392 1.29.667 2.26.837 2.9.106.427.23.988.373 1.69.267-.81.498-1.467.694-1.974.347-.926.828-2.162 1.45-3.702l1.29-3.185c.232-.569.463-1.183.703-1.841.8.017 1.406.026 1.824.026.383 0 1.023-.009 1.922-.026l-5.125 11.485-2.224 5.072c-.311.658-.605 1.165-.89 1.53a4.32 4.32 0 01-.756.8 4.282 4.282 0 01-.854.534c-.383.178-.792.32-1.237.428a7.392 7.392 0 01-1.53.16c-.294 0-.703-.027-1.228-.08a9.8 9.8 0 01-1.53-.258zm16.005-6.113c.205-2.02.374-4.279.507-6.797.134-2.509.214-4.768.232-6.752a67.383 67.383 0 003.799 0l-.152 2.268c.276-.391.516-.703.73-.934.204-.231.471-.454.8-.676.32-.222.668-.4 1.041-.534a7.35 7.35 0 011.237-.32c.454-.08.934-.116 1.433-.116.791 0 1.547.098 2.268.303.72.195 1.308.516 1.753.952.445.436.738.907.88 1.423a6.09 6.09 0 01.214 1.637c0 .24-.009.623-.035 1.148l-.276 5.818a76.36 76.36 0 00-.063 2.58 72.435 72.435 0 00-1.797-.026c-.676 0-1.352.009-2.037.026.071-.774.16-2.117.267-4.039.107-1.921.16-3.194.16-3.816 0-.703-.107-1.264-.33-1.69-.222-.428-.569-.748-1.031-.97a3.45 3.45 0 00-1.513-.33 3.65 3.65 0 00-1.494.303 3.364 3.364 0 00-1.201.89c-.356.4-.632.89-.828 1.476-.204.623-.356 1.646-.454 3.079-.088 1.272-.16 2.971-.213 5.097a71.73 71.73 0 00-3.897 0zM95.4 28.666c-.115.524-.275 1.467-.489 2.82-.96.204-1.77.338-2.429.409-.658.071-1.316.107-1.984.107-1.165 0-2.206-.116-3.123-.347a5.72 5.72 0 01-2.42-1.272 5.493 5.493 0 01-1.53-2.27 8.107 8.107 0 01-.489-2.82c0-1.094.187-2.152.57-3.176.382-1.023.916-1.859 1.6-2.517a5.968 5.968 0 012.35-1.388 9.159 9.159 0 012.758-.41c.907 0 1.77.116 2.58.339.81.222 1.503.596 2.055 1.112.551.516.978 1.13 1.281 1.85.294.72.445 1.53.445 2.411 0 .418-.045.845-.134 1.29l-9.768.018c-.018.33-.027.587-.027.783 0 .596.098 1.139.302 1.637.205.498.499.916.89 1.263.392.347.854.605 1.397.765.543.16 1.076.25 1.601.25.614 0 1.273-.063 1.993-.196.72-.134 1.584-.338 2.572-.659zm-8.612-5.383l6.237.018c0-.427-.009-.739-.036-.943a3.631 3.631 0 00-.178-.694 2.393 2.393 0 00-.382-.694 2.132 2.132 0 00-.56-.498 2.627 2.627 0 00-.739-.303 3.61 3.61 0 00-.899-.107 3.369 3.369 0 00-2.055.676 3.092 3.092 0 00-.712.739 3.54 3.54 0 00-.409.792 8.874 8.874 0 00-.267 1.014zM98.31 31.69l.382-6.325.107-3.675a95.47 95.47 0 00.027-2.277c0-.134-.01-.552-.027-1.264.827.018 1.432.027 1.824.027.453 0 1.05-.009 1.797-.026l-.062 1.877c.338-.48.622-.837.863-1.077a3.809 3.809 0 011.806-.987 4.705 4.705 0 011.121-.134c.356 0 .72.045 1.094.134 0 .827.036 1.877.116 3.14a5.48 5.48 0 00-1.424-.213c-.516 0-.97.08-1.37.231a3.195 3.195 0 00-1.068.703 3.84 3.84 0 00-.783 1.165c-.169.374-.293.854-.373 1.45-.071.463-.125 1.255-.178 2.376a82.512 82.512 0 00-.071 3.3c0 .419.009.944.035 1.575a70.614 70.614 0 00-1.85-.026c-.543 0-1.201.009-1.966.026zm11.29 2.812c2.001.658 3.727.987 5.195.987.561 0 1.086-.07 1.584-.204a3.571 3.571 0 001.254-.596c.339-.258.597-.614.783-1.068.187-.454.312-.97.374-1.557s.107-1.486.151-2.678a8.844 8.844 0 01-.934 1.103 4.243 4.243 0 01-.996.703 6.145 6.145 0 01-1.353.507 6.472 6.472 0 01-1.628.196 6.819 6.819 0 01-2.224-.365 4.985 4.985 0 01-1.868-1.156c-.543-.525-.961-1.184-1.246-1.975a7.273 7.273 0 01-.427-2.483c0-1.236.231-2.402.703-3.505.463-1.103 1.148-2.01 2.055-2.713.899-.712 1.868-1.201 2.892-1.468 1.023-.267 2.162-.4 3.416-.4.694 0 1.477.044 2.358.124.88.08 2.046.258 3.487.516l-.302 4.217-.276 5.285-.107 4.777a9.92 9.92 0 01-.196 1.566 4.743 4.743 0 01-.507 1.361c-.231.4-.525.765-.881 1.077a4.63 4.63 0 01-1.201.756c-.444.187-1.005.347-1.663.471-.659.125-1.37.187-2.127.187-.809 0-1.726-.053-2.758-.16a25.787 25.787 0 01-3.372-.596l-.186-2.91zm9.724-13.692c-.774-.16-1.486-.24-2.144-.24-1.157 0-2.109.213-2.865.631-.756.427-1.335 1.041-1.744 1.85a5.618 5.618 0 00-.614 2.572 4.6 4.6 0 00.374 1.86 2.68 2.68 0 001.165 1.298 3.536 3.536 0 001.753.436c.454 0 .881-.071 1.272-.213a3.343 3.343 0 001.077-.65 4.25 4.25 0 00.845-1.094c.24-.436.418-.925.516-1.477.098-.552.178-1.228.231-2.055.054-.81.098-1.789.134-2.918zm18.336 7.856c-.115.524-.276 1.467-.489 2.82-.961.204-1.771.338-2.429.409-.658.071-1.317.107-1.984.107-1.165 0-2.206-.116-3.123-.347a5.722 5.722 0 01-2.42-1.272 5.491 5.491 0 01-1.53-2.27 8.111 8.111 0 01-.489-2.82c0-1.094.187-2.152.569-3.176.383-1.023.917-1.859 1.602-2.517a5.971 5.971 0 012.348-1.388 9.164 9.164 0 012.758-.41c.908 0 1.771.116 2.58.339.81.222 1.504.596 2.056 1.112a5.33 5.33 0 011.281 1.85c.293.72.445 1.53.445 2.411 0 .418-.045.845-.134 1.29l-9.769.018c-.017.33-.026.587-.026.783 0 .596.098 1.139.302 1.637.205.498.498.916.89 1.263a3.61 3.61 0 001.397.765c.542.16 1.076.25 1.601.25.614 0 1.272-.063 1.993-.196a20.273 20.273 0 002.571-.659zm-8.603-5.383l6.237.018c0-.427-.009-.739-.036-.943a3.647 3.647 0 00-.178-.694 2.396 2.396 0 00-.382-.694 2.14 2.14 0 00-.561-.498 2.628 2.628 0 00-.738-.303 3.616 3.616 0 00-.899-.107 3.375 3.375 0 00-2.055.676 3.086 3.086 0 00-.712.739c-.178.267-.32.534-.409.792a8.893 8.893 0 00-.267 1.014zm19.84 5.623c-.107.49-.276 1.397-.507 2.713-.747.17-1.335.276-1.762.32a11.43 11.43 0 01-1.201.063 7.53 7.53 0 01-1.761-.187c-.516-.125-.952-.347-1.29-.658a2.333 2.333 0 01-.685-1.104 4.938 4.938 0 01-.178-1.316 5 5 0 01.017-.463c.009-.196.045-.827.107-1.895l.303-5.543h-1.913c.044-.533.08-1.387.116-2.57h2.01c.054-.517.107-1.389.16-2.625l1.575-.303c.329-.062.961-.204 1.913-.436a78.667 78.667 0 00-.107 3.372h3.39a55.358 55.358 0 00-.089 2.571h-3.399c-.187 3.612-.276 5.703-.276 6.273 0 .551.063.978.178 1.28.116.303.312.517.579.65.267.134.551.196.854.196.222 0 .454-.018.703-.053.222-.027.649-.125 1.263-.285zm1.557 2.784a86.7 86.7 0 00.284-3.345c.089-1.423.169-3.06.241-4.91.071-1.851.115-3.622.142-5.285.863.017 1.512.026 1.948.026.401 0 1.041-.009 1.931-.026a247.123 247.123 0 00-.294 4.421 159.176 159.176 0 00-.16 4.822 236.441 236.441 0 00-.053 4.306 92.86 92.86 0 00-1.949-.026 62.44 62.44 0 00-2.09.017zm.729-15.863c.036-.916.054-1.619.054-2.108v-.427a67.512 67.512 0 003.905 0 8.958 8.958 0 00-.053.756l-.062 1.77a71.453 71.453 0 00-1.869-.026c-.578.009-1.236.018-1.975.036zm16.887 12.785a18.51 18.51 0 01-.196 1.237 37.812 37.812 0 00-.276 1.717 16.61 16.61 0 01-3.754.436c-.721 0-1.415-.063-2.082-.196a5.973 5.973 0 01-1.86-.712 5.435 5.435 0 01-1.512-1.352c-.436-.56-.765-1.237-.979-2.028a9.418 9.418 0 01-.329-2.456c0-1.121.178-2.197.543-3.22.356-1.033.889-1.869 1.574-2.527.694-.65 1.46-1.095 2.314-1.335a10.699 10.699 0 012.829-.356c.578 0 1.174.036 1.788.098.614.071 1.335.205 2.171.41l.196 2.918c-1.317-.454-2.474-.677-3.461-.677-.605 0-1.175.107-1.708.303a3.307 3.307 0 00-1.379.97 4.019 4.019 0 00-.828 1.521 6.601 6.601 0 00-.249 1.77c0 .846.134 1.575.392 2.19.258.613.711 1.093 1.352 1.431.64.339 1.361.508 2.18.508.4 0 .88-.054 1.459-.152a10.778 10.778 0 001.815-.498zm2.082 2.829l-.294-2.927c.872.356 1.61.605 2.215.739a7.775 7.775 0 001.664.204c.507 0 .934-.062 1.281-.178.347-.115.605-.293.774-.533a1.23 1.23 0 00.249-.739 1.249 1.249 0 00-.151-.623c-.053-.106-.125-.204-.196-.302a3.334 3.334 0 00-.311-.32 9.853 9.853 0 00-.57-.463l-.72-.57a50.011 50.011 0 01-1.584-1.28 6.482 6.482 0 01-.916-.953 3.904 3.904 0 01-.57-1.023 3.365 3.365 0 01-.195-1.103c0-.65.195-1.263.596-1.85.391-.588.969-1.015 1.726-1.282.756-.266 1.646-.409 2.66-.409 1.165 0 2.5.143 4.021.41l.169 2.784c-1.032-.418-2.019-.623-2.971-.623-.516 0-.97.054-1.353.152-.382.106-.667.258-.836.462a1.08 1.08 0 00-.249.703c0 .151.027.303.08.445.053.142.142.303.276.463.133.16.285.311.463.453.177.143.533.419 1.085.837.552.418 1.032.791 1.441 1.13.409.338.756.676 1.023 1.023.267.338.472.711.614 1.103.143.391.214.783.214 1.183 0 .667-.205 1.281-.614 1.85-.409.57-1.023 1.015-1.851 1.335-.827.32-1.752.48-2.767.48a19.36 19.36 0 01-1.948-.124 21.994 21.994 0 01-2.455-.454z" fill="#144C8A"/><path d="M0 30.267s5.658-5.107 12.028-7.518c6.37-2.411 12.145-3.825 12.483-4.021.338-.205 2.678-1.406.4-2.349-2.411-1.005-4.226-1.21-4.76-1.54-.534-.337-2.749-1.21-.738-3.424.382-.419 1.832-1.041 2.349-1.21.8-.267 3.62-1.21 3.887-1.21.267 0 1.468.658 1.468.658s-2.473 1.139-2.74 1.628c-.338.605-.738 1.406.4 2.082.953.56 2.207.685 3.034.81.143.017.276.044.383.062 1.12.231 5.676 1.539 4.964 4.493-.533 2.215-2.989 2.953-3.558 3.15-3.621 1.271-10.454 5.613-12.545 7.046-5.098 3.487-9.564 9.039-10.72 11.44-.09.188-.178.49-.178.49C.445 35.898 0 30.267 0 30.267M28.541 4.858h-.89L28.096 0l.445 4.858zm1.646 1.592l-.632-.623 2.038-1.405-1.406 2.028zm-3.692-.712l-.623.632-1.406-2.028 2.029 1.396z" fill="#F58421"/><path d="M27.42 7.571a.615.615 0 011.228 0 .615.615 0 01-1.228 0z" fill="#F58421" stroke="#F58421" stroke-miterlimit="10"/><path d="M30.41 8.016v-.89l4.848.445-4.849.445zm-4.903-.89v.89l-4.849-.445 4.849-.445z" fill="#F58421"/></g><defs><clipPath id="clip0_2421:31"><path fill="#fff" d="M0 0h180v40.854H0z"/></clipPath></defs></svg>